<?xml version="1.0" encoding="UTF-8" ?>
<!DOCTYPE svg PUBLIC "-//W3C//DTD SVG 1.1//EN" "http://www.w3.org/Graphics/SVG/1.1/DTD/svg11.dtd">
<svg width="500pt" height="338pt" viewBox="0 0 500 338" version="1.1" xmlns="http://www.w3.org/2000/svg">
<g id="#ffffffff">
<path fill="#ffffff" opacity="1.00" d=" M 0.00 0.00 L 500.00 0.00 L 500.00 338.00 L 0.00 338.00 L 0.00 0.00 M 388.90 172.90 C 385.95 176.06 384.60 180.27 382.95 184.17 C 381.40 187.87 379.94 191.76 380.14 195.83 C 380.21 197.73 379.97 199.71 380.60 201.54 C 382.35 204.04 384.97 205.80 386.64 208.37 C 387.71 210.17 388.10 212.26 388.69 214.24 C 385.68 216.05 382.06 215.77 378.72 216.39 C 376.21 215.79 372.92 214.64 370.86 216.85 C 369.47 219.22 369.04 222.00 368.28 224.61 C 371.99 224.47 376.02 225.39 379.43 223.47 C 382.02 221.96 385.09 222.23 387.97 222.06 C 389.56 222.75 391.25 223.17 392.91 223.66 C 390.18 225.62 386.59 227.48 386.43 231.31 C 385.77 237.53 383.49 244.04 385.47 250.21 C 386.15 250.31 387.51 250.53 388.19 250.64 C 388.49 250.87 389.10 251.33 389.40 251.56 C 389.65 255.98 391.37 260.05 392.68 264.21 C 393.50 265.89 391.31 266.54 390.07 266.41 C 384.24 266.06 378.41 265.87 372.59 265.40 C 367.68 264.81 362.43 265.51 358.22 268.24 C 354.73 270.78 354.54 275.69 351.63 278.69 C 347.58 278.79 343.58 277.87 339.56 277.47 C 337.40 277.09 335.04 277.07 333.14 275.87 C 331.17 271.47 331.89 266.10 328.99 262.03 C 326.53 258.79 322.47 255.83 318.21 257.07 C 315.19 258.59 312.86 261.23 311.04 264.02 C 309.09 266.94 310.23 270.79 308.78 273.80 C 304.88 276.60 299.79 276.77 295.33 278.23 C 292.80 279.13 289.50 279.37 288.01 281.91 C 286.82 283.37 286.23 285.56 284.33 286.27 C 278.18 288.69 271.44 287.82 265.10 286.79 C 264.88 282.20 266.56 277.69 265.84 273.10 C 265.44 269.75 264.87 266.39 264.96 263.01 C 264.96 259.12 265.89 255.15 264.78 251.34 C 263.99 248.58 263.81 245.71 264.14 242.87 C 266.37 243.36 268.53 244.16 270.79 244.54 C 274.25 243.63 276.59 239.74 275.88 236.24 C 275.44 232.84 274.00 228.28 269.94 227.97 C 264.64 228.19 261.06 233.13 255.93 233.99 C 254.26 234.02 252.69 233.35 251.11 232.93 C 253.02 228.72 256.26 225.20 257.78 220.82 C 258.35 216.83 258.65 212.16 256.26 208.70 C 253.15 206.22 249.22 209.97 249.26 213.30 C 247.93 216.20 246.69 219.19 244.60 221.65 C 243.00 223.90 240.70 225.90 240.20 228.73 C 238.79 232.90 239.11 237.31 239.79 241.58 C 238.23 241.52 237.48 243.06 236.49 243.98 C 234.58 247.77 233.72 251.97 233.19 256.16 C 230.61 256.60 229.79 259.25 228.67 261.24 C 225.84 266.89 224.00 273.12 224.29 279.49 C 222.41 282.97 224.05 288.00 220.45 290.49 C 218.18 292.34 215.21 292.89 212.43 293.55 C 208.30 294.42 204.21 295.58 199.98 295.81 C 196.69 296.12 192.53 295.50 190.72 299.00 C 191.54 299.90 192.03 301.23 193.22 301.72 C 197.92 303.56 203.02 303.78 207.98 304.19 C 214.06 304.58 219.85 306.84 225.96 306.99 C 237.64 307.29 249.34 306.85 261.03 307.14 C 264.18 307.19 267.30 307.70 270.37 308.43 C 271.05 310.10 271.59 311.88 272.70 313.35 C 275.36 314.25 278.24 313.92 281.01 313.98 C 287.02 313.84 293.12 314.31 299.05 313.07 C 302.46 312.37 305.42 310.14 308.95 309.91 C 315.72 309.55 323.10 309.90 328.62 314.37 C 334.49 319.06 342.43 319.83 349.60 318.46 C 354.25 316.98 357.55 313.20 360.62 309.61 C 362.29 307.40 365.35 307.96 367.74 308.21 C 376.77 309.64 385.87 311.10 395.04 310.76 C 406.89 310.48 418.80 311.53 430.61 310.43 C 441.47 307.94 452.67 308.08 463.66 306.53 C 467.17 306.37 468.75 302.89 470.30 300.26 C 471.16 298.43 473.00 295.86 470.80 294.24 C 464.74 291.28 458.09 289.17 452.76 284.89 C 453.13 280.52 455.28 276.42 454.95 271.97 C 454.92 268.95 454.00 265.39 450.98 264.06 C 446.26 262.18 441.18 264.46 436.37 263.75 C 432.42 262.12 435.14 258.01 435.39 255.05 C 435.85 248.98 439.99 243.47 438.54 237.23 C 437.25 232.43 435.67 227.69 435.30 222.69 C 430.41 221.96 425.19 221.39 421.29 218.03 C 422.99 216.07 425.46 215.32 428.00 215.63 C 433.15 215.35 437.47 218.92 442.59 218.85 C 443.70 215.68 444.39 212.35 444.16 208.98 C 439.49 209.40 434.81 209.73 430.13 209.93 C 429.27 209.36 428.43 208.78 427.61 208.18 C 426.66 204.53 425.00 201.13 423.85 197.55 C 424.80 192.93 424.24 188.16 423.08 183.62 C 421.75 179.00 417.44 176.20 413.56 173.84 C 408.94 170.33 402.68 169.88 397.19 171.19 C 394.45 171.56 390.94 170.54 388.90 172.90 Z" />
</g>
<g id="#f9c689ff">
<path fill="#f9c689" opacity="1.00" d=" M 388.90 172.90 C 390.94 170.54 394.45 171.56 397.19 171.19 C 395.42 171.70 393.68 172.30 391.94 172.89 C 391.86 175.96 392.01 179.04 392.23 182.11 C 394.15 179.00 396.13 175.91 398.25 172.93 C 400.35 174.75 402.18 176.85 403.78 179.13 C 401.47 182.98 399.52 187.14 396.40 190.43 C 394.15 193.01 390.45 192.19 387.45 192.30 C 387.53 192.73 387.69 193.60 387.77 194.04 C 388.42 197.44 388.81 200.94 388.16 204.37 C 386.99 203.36 385.62 202.51 384.79 201.18 C 384.09 197.83 384.32 194.38 384.17 190.99 C 383.56 191.30 382.35 191.92 381.74 192.23 C 381.76 194.79 381.78 197.35 381.99 199.91 C 381.31 198.58 380.69 197.22 380.14 195.83 C 379.94 191.76 381.40 187.87 382.95 184.17 C 384.60 180.27 385.95 176.06 388.90 172.90 Z" />
</g>
<g id="#f2b37dff">
<path fill="#f2b37d" opacity="1.00" d=" M 397.19 171.19 C 402.68 169.88 408.94 170.33 413.56 173.84 C 413.43 174.36 413.18 175.40 413.05 175.92 C 414.44 179.22 417.20 181.79 418.30 185.24 C 419.28 188.42 419.34 191.78 419.58 195.08 C 416.98 193.88 413.96 193.14 411.97 190.95 C 409.58 187.49 410.30 182.99 408.81 179.21 C 407.70 178.38 406.29 178.14 405.03 177.67 C 405.26 182.12 406.59 186.76 404.96 191.11 C 403.87 194.34 402.70 197.56 401.72 200.83 C 399.55 200.43 397.40 199.93 395.26 199.42 C 396.36 201.84 397.41 204.30 398.34 206.80 C 397.50 209.45 397.49 212.25 398.55 214.85 C 395.03 216.77 391.47 218.67 387.59 219.79 C 387.66 220.21 387.79 221.04 387.86 221.46 L 387.97 222.06 C 385.09 222.23 382.02 221.96 379.43 223.47 C 376.02 225.39 371.99 224.47 368.28 224.61 C 369.04 222.00 369.47 219.22 370.86 216.85 C 372.92 214.64 376.21 215.79 378.72 216.39 C 383.56 217.98 389.60 218.44 393.48 214.49 C 396.54 211.85 393.74 207.93 392.99 204.87 C 392.57 202.64 392.72 200.28 391.89 198.15 C 390.81 196.51 389.21 195.32 387.77 194.04 C 387.69 193.60 387.53 192.73 387.45 192.30 C 390.45 192.19 394.15 193.01 396.40 190.43 C 399.52 187.14 401.47 182.98 403.78 179.13 C 402.18 176.85 400.35 174.75 398.25 172.93 C 396.13 175.91 394.15 179.00 392.23 182.11 C 392.01 179.04 391.86 175.96 391.94 172.89 C 393.68 172.30 395.42 171.70 397.19 171.19 Z" />
</g>
<g id="#dc906aff">
<path fill="#dc906a" opacity="1.00" d=" M 413.05 175.92 C 413.18 175.40 413.43 174.36 413.56 173.84 C 417.44 176.20 421.75 179.00 423.08 183.62 C 424.24 188.16 424.80 192.93 423.85 197.55 L 423.54 196.72 C 423.34 196.23 422.95 195.25 422.75 194.76 C 421.11 196.14 419.80 197.85 418.58 199.60 C 415.78 198.15 413.12 196.41 410.67 194.41 C 407.51 199.18 408.85 205.03 408.32 210.38 C 407.30 208.35 406.66 205.52 404.16 204.85 C 401.97 203.87 400.15 205.92 398.34 206.80 C 397.41 204.30 396.36 201.84 395.26 199.42 C 397.40 199.93 399.55 200.43 401.72 200.83 C 402.70 197.56 403.87 194.34 404.96 191.11 C 406.59 186.76 405.26 182.12 405.03 177.67 C 406.29 178.14 407.70 178.38 408.81 179.21 C 410.30 182.99 409.58 187.49 411.97 190.95 C 413.96 193.14 416.98 193.88 419.58 195.08 C 419.34 191.78 419.28 188.42 418.30 185.24 C 417.20 181.79 414.44 179.22 413.05 175.92 Z" />
</g>
<g id="#dc9f6bff">
<path fill="#dc9f6b" opacity="1.00" d=" M 381.74 192.23 C 382.35 191.92 383.56 191.30 384.17 190.99 C 384.32 194.38 384.09 197.83 384.79 201.18 C 385.62 202.51 386.99 203.36 388.16 204.37 C 388.81 200.94 388.42 197.44 387.77 194.04 C 389.21 195.32 390.81 196.51 391.89 198.15 C 392.72 200.28 392.57 202.64 392.99 204.87 C 391.25 205.43 389.32 206.73 387.49 205.75 C 384.99 204.59 383.24 202.28 381.99 199.91 C 381.78 197.35 381.76 194.79 381.74 192.23 Z" />
</g>
<g id="#c56d58ff">
<path fill="#c56d58" opacity="1.00" d=" M 410.67 194.41 C 413.12 196.41 415.78 198.15 418.58 199.60 C 419.80 197.85 421.11 196.14 422.75 194.76 C 422.95 195.25 423.34 196.23 423.54 196.72 C 423.02 198.34 422.77 200.19 421.57 201.47 C 419.95 202.26 418.13 202.46 416.40 202.85 C 414.81 207.44 419.97 210.86 418.19 215.47 C 415.54 212.84 412.07 211.27 408.32 211.26 L 408.32 210.38 C 408.85 205.03 407.51 199.18 410.67 194.41 Z" />
</g>
<g id="#f8e2a9ff">
<path fill="#f8e2a9" opacity="1.00" d=" M 380.14 195.83 C 380.69 197.22 381.31 198.58 381.99 199.91 C 383.24 202.28 384.99 204.59 387.49 205.75 C 389.32 206.73 391.25 205.43 392.99 204.87 C 393.74 207.93 396.54 211.85 393.48 214.49 C 389.60 218.44 383.56 217.98 378.72 216.39 C 382.06 215.77 385.68 216.05 388.69 214.24 C 388.10 212.26 387.71 210.17 386.64 208.37 C 384.97 205.80 382.35 204.04 380.60 201.54 C 379.97 199.71 380.21 197.73 380.14 195.83 Z" />
</g>
<g id="#e3c1cdff">
<path fill="#e3c1cd" opacity="1.00" d=" M 423.54 196.72 L 423.85 197.55 C 425.00 201.13 426.66 204.53 427.61 208.18 C 426.21 207.19 424.79 206.25 423.37 205.31 C 422.39 207.05 421.41 208.78 420.41 210.51 C 421.19 211.02 421.97 211.52 422.76 212.01 C 421.55 213.65 420.36 215.32 419.19 216.99 C 418.94 216.61 418.44 215.85 418.19 215.47 C 419.97 210.86 414.81 207.44 416.40 202.85 C 418.13 202.46 419.95 202.26 421.57 201.47 C 422.77 200.19 423.02 198.34 423.54 196.72 Z" />
</g>
<g id="#e3c1bbff">
<path fill="#e3c1bb" opacity="1.00" d=" M 398.34 206.80 C 400.15 205.92 401.97 203.87 404.16 204.85 C 406.66 205.52 407.30 208.35 408.32 210.38 L 408.32 211.26 C 406.90 212.51 405.47 213.75 404.06 215.01 C 402.35 213.87 400.35 214.02 398.55 214.85 C 397.49 212.25 397.50 209.45 398.34 206.80 Z" />
</g>
<g id="#d9a779ff">
<path fill="#d9a779" opacity="1.00" d=" M 423.37 205.31 C 424.79 206.25 426.21 207.19 427.61 208.18 C 428.43 208.78 429.27 209.36 430.13 209.93 C 434.45 211.21 439.02 210.69 443.47 210.85 C 442.90 212.86 442.32 214.86 441.72 216.85 C 435.41 215.28 428.51 215.34 422.76 212.01 C 421.97 211.52 421.19 211.02 420.41 210.51 C 421.41 208.78 422.39 207.05 423.37 205.31 Z" />
</g>
<g id="#fefae8ff">
<path fill="#fefae8" opacity="1.00" d=" M 249.26 213.30 C 249.22 209.97 253.15 206.22 256.26 208.70 C 258.65 212.16 258.35 216.83 257.78 220.82 C 256.26 225.20 253.02 228.72 251.11 232.93 C 252.69 233.35 254.26 234.02 255.93 233.99 C 261.06 233.13 264.64 228.19 269.94 227.97 C 274.00 228.28 275.44 232.84 275.88 236.24 C 276.59 239.74 274.25 243.63 270.79 244.54 C 268.53 244.16 266.37 243.36 264.14 242.87 C 263.81 245.71 263.99 248.58 264.78 251.34 C 265.89 255.15 264.96 259.12 264.96 263.01 C 264.87 266.39 265.44 269.75 265.84 273.10 C 266.56 277.69 264.88 282.20 265.10 286.79 C 271.44 287.82 278.18 288.69 284.33 286.27 C 286.23 285.56 286.82 283.37 288.01 281.91 C 289.50 279.37 292.80 279.13 295.33 278.23 C 299.79 276.77 304.88 276.60 308.78 273.80 C 310.23 270.79 309.09 266.94 311.04 264.02 C 312.86 261.23 315.19 258.59 318.21 257.07 C 322.47 255.83 326.53 258.79 328.99 262.03 C 331.89 266.10 331.17 271.47 333.14 275.87 C 335.04 277.07 337.40 277.09 339.56 277.47 C 343.58 277.87 347.58 278.79 351.63 278.69 C 354.54 275.69 354.73 270.78 358.22 268.24 C 362.43 265.51 367.68 264.81 372.59 265.40 C 378.41 265.87 384.24 266.06 390.07 266.41 C 391.31 266.54 393.50 265.89 392.68 264.21 C 391.37 260.05 389.65 255.98 389.40 251.56 C 390.72 252.57 392.03 253.74 392.51 255.41 C 394.16 259.96 395.15 264.72 396.45 269.39 C 392.07 269.84 387.66 269.55 383.31 268.92 C 376.44 267.53 369.39 267.86 362.47 268.59 C 357.22 269.96 356.32 276.83 358.32 281.14 C 359.23 282.43 360.19 283.68 361.20 284.90 C 362.05 285.98 362.87 287.08 363.71 288.18 C 360.49 287.94 357.14 288.13 354.08 286.98 C 351.57 285.14 350.24 281.51 346.80 281.18 C 340.67 280.00 334.17 281.15 328.29 278.62 C 327.79 277.73 327.31 276.85 326.83 275.96 L 327.03 275.12 C 327.75 270.94 329.01 265.76 325.67 262.34 C 323.33 259.39 318.41 258.98 315.95 262.00 C 312.57 264.90 314.30 269.61 313.34 273.37 C 309.82 279.11 303.57 282.17 297.68 284.90 C 297.92 285.54 298.41 286.82 298.65 287.46 C 301.97 288.37 305.34 289.13 308.73 289.74 C 308.88 292.16 309.48 295.54 306.58 296.62 C 300.24 299.12 293.10 298.18 286.69 296.39 C 281.29 294.81 275.72 294.02 270.21 293.00 C 269.46 290.55 267.26 289.46 264.91 289.00 C 264.29 288.81 263.05 288.44 262.44 288.25 C 262.66 286.51 262.89 284.77 263.17 283.05 C 263.42 281.52 263.70 279.99 263.89 278.46 C 265.57 273.08 260.41 270.01 257.39 266.56 C 258.55 265.28 259.71 263.99 260.86 262.69 C 260.83 261.18 260.79 259.67 260.87 258.16 C 261.00 257.79 261.26 257.04 261.39 256.67 C 263.20 252.39 260.92 247.88 261.40 243.49 C 262.15 241.92 263.56 240.59 265.25 240.10 C 268.09 240.38 270.79 241.38 273.59 241.91 C 274.04 237.85 274.69 231.69 269.83 230.06 C 263.32 230.63 259.36 237.30 253.08 238.65 C 250.52 239.03 248.88 236.84 247.49 235.07 C 247.92 233.66 248.41 232.27 248.91 230.89 C 251.31 227.60 254.14 224.49 255.57 220.61 C 256.89 217.02 256.29 213.13 256.01 209.42 C 253.42 210.03 251.01 211.26 249.26 213.30 Z" />
</g>
<g id="#fef9d8ff">
<path fill="#fef9d8" opacity="1.00" d=" M 430.13 209.93 C 434.81 209.73 439.49 209.40 444.16 208.98 C 444.39 212.35 443.70 215.68 442.59 218.85 C 437.47 218.92 433.15 215.35 428.00 215.63 C 425.46 215.32 422.99 216.07 421.29 218.03 C 425.19 221.39 430.41 221.96 435.30 222.69 C 435.67 227.69 437.25 232.43 438.54 237.23 C 439.99 243.47 435.85 248.98 435.39 255.05 C 435.14 258.01 432.42 262.12 436.37 263.75 C 441.18 264.46 446.26 262.18 450.98 264.06 C 454.00 265.39 454.92 268.95 454.95 271.97 C 455.28 276.42 453.13 280.52 452.76 284.89 C 458.09 289.17 464.74 291.28 470.80 294.24 C 473.00 295.86 471.16 298.43 470.30 300.26 C 468.75 302.89 467.17 306.37 463.66 306.53 C 452.67 308.08 441.47 307.94 430.61 310.43 C 418.80 311.53 406.89 310.48 395.04 310.76 C 385.87 311.10 376.77 309.64 367.74 308.21 C 365.35 307.96 362.29 307.40 360.62 309.61 C 357.55 313.20 354.25 316.98 349.60 318.46 C 342.43 319.83 334.49 319.06 328.62 314.37 C 323.10 309.90 315.72 309.55 308.95 309.91 C 305.42 310.14 302.46 312.37 299.05 313.07 C 293.12 314.31 287.02 313.84 281.01 313.98 C 278.24 313.92 275.36 314.25 272.70 313.35 C 271.59 311.88 271.05 310.10 270.37 308.43 C 267.30 307.70 264.18 307.19 261.03 307.14 C 249.34 306.85 237.64 307.29 225.96 306.99 C 219.85 306.84 214.06 304.58 207.98 304.19 C 203.02 303.78 197.92 303.56 193.22 301.72 C 192.03 301.23 191.54 299.90 190.72 299.00 C 192.53 295.50 196.69 296.12 199.98 295.81 C 204.21 295.58 208.30 294.42 212.43 293.55 C 215.21 292.89 218.18 292.34 220.45 290.49 C 224.05 288.00 222.41 282.97 224.29 279.49 C 224.76 285.07 224.67 290.68 224.83 296.28 L 224.14 296.53 C 218.80 295.34 213.56 297.07 208.73 299.24 C 220.52 305.56 234.30 303.89 247.15 303.86 C 255.52 303.64 264.99 304.13 271.78 298.31 C 271.26 296.53 270.77 294.75 270.21 293.00 C 275.72 294.02 281.29 294.81 286.69 296.39 C 293.10 298.18 300.24 299.12 306.58 296.62 C 309.48 295.54 308.88 292.16 308.73 289.74 C 305.34 289.13 301.97 288.37 298.65 287.46 C 298.41 286.82 297.92 285.54 297.68 284.90 C 303.57 282.17 309.82 279.11 313.34 273.37 C 314.30 269.61 312.57 264.90 315.95 262.00 C 318.41 258.98 323.33 259.39 325.67 262.34 C 329.01 265.76 327.75 270.94 327.03 275.12 C 325.21 274.61 323.38 274.16 321.62 273.50 C 321.57 271.84 323.11 270.79 323.90 269.49 C 325.46 267.47 325.50 264.16 323.23 262.64 C 320.19 260.83 316.10 263.62 315.99 266.95 C 316.37 268.30 317.04 269.54 317.72 270.77 C 318.09 271.35 318.83 272.51 319.20 273.09 C 316.26 274.86 313.32 276.67 310.58 278.74 C 308.26 280.33 307.74 282.95 308.25 285.59 C 314.93 287.44 321.93 287.07 328.78 286.70 C 332.49 286.51 336.06 285.32 339.38 283.71 C 335.83 281.66 330.85 282.19 328.29 278.62 C 334.17 281.15 340.67 280.00 346.80 281.18 C 350.24 281.51 351.57 285.14 354.08 286.98 C 357.14 288.13 360.49 287.94 363.71 288.18 C 362.87 287.08 362.05 285.98 361.20 284.90 C 362.58 285.54 364.00 286.11 365.39 286.77 C 366.81 287.52 368.19 288.36 369.54 289.25 C 366.70 293.62 361.11 292.66 356.70 293.71 C 353.99 294.00 352.23 296.23 350.45 298.03 C 356.94 302.19 364.87 302.27 372.23 303.59 C 380.84 304.21 389.32 306.22 397.97 306.32 C 414.24 306.29 430.71 307.07 446.72 303.57 C 450.82 302.56 454.57 300.55 458.30 298.62 C 455.42 296.38 451.97 295.07 449.00 292.98 C 447.31 290.70 447.12 287.72 446.28 285.08 C 449.04 281.91 452.47 278.91 453.66 274.74 C 454.03 271.36 452.77 267.12 449.54 265.55 C 444.81 265.21 440.14 266.54 435.54 267.45 C 434.01 266.46 432.52 265.42 431.09 264.30 C 432.97 257.77 433.33 250.98 434.35 244.31 C 435.58 243.19 437.06 242.24 437.85 240.73 C 437.94 238.65 436.85 236.77 436.19 234.86 C 434.81 231.71 434.17 228.29 432.68 225.19 C 431.50 223.66 429.39 223.29 427.68 222.58 C 425.75 221.95 423.79 221.43 421.82 220.94 C 420.93 219.63 420.05 218.32 419.19 216.99 C 420.36 215.32 421.55 213.65 422.76 212.01 C 428.51 215.34 435.41 215.28 441.72 216.85 C 442.32 214.86 442.90 212.86 443.47 210.85 C 439.02 210.69 434.45 211.21 430.13 209.93 Z" />
</g>
<g id="#f5dec4ff">
<path fill="#f5dec4" opacity="1.00" d=" M 249.26 213.30 C 251.01 211.26 253.42 210.03 256.01 209.42 C 256.29 213.13 256.89 217.02 255.57 220.61 C 254.14 224.49 251.31 227.60 248.91 230.89 C 248.83 230.40 248.68 229.42 248.61 228.93 C 245.40 231.30 245.99 236.12 242.95 238.40 C 240.93 235.59 240.63 232.05 240.20 228.73 C 240.70 225.90 243.00 223.90 244.60 221.65 C 246.69 219.19 247.93 216.20 249.26 213.30 Z" />
</g>
<g id="#efcb8aff">
<path fill="#efcb8a" opacity="1.00" d=" M 404.06 215.01 C 405.47 213.75 406.90 212.51 408.32 211.26 C 412.07 211.27 415.54 212.84 418.19 215.47 C 418.44 215.85 418.94 216.61 419.19 216.99 C 420.05 218.32 420.93 219.63 421.82 220.94 C 421.93 222.08 422.05 223.22 422.17 224.37 C 419.10 225.94 415.79 227.09 412.32 227.25 C 406.88 227.86 401.89 225.00 396.55 224.59 C 398.29 223.77 400.24 223.09 401.55 221.60 C 402.46 219.73 402.78 217.65 403.35 215.67 L 404.06 215.01 M 405.69 215.67 C 405.01 218.72 403.10 222.56 405.43 225.32 C 408.67 226.49 412.18 225.94 415.52 225.50 C 415.73 222.18 416.65 217.84 413.17 215.84 C 411.04 213.68 408.10 214.70 405.69 215.67 Z" />
</g>
<g id="#cc8f69ff">
<path fill="#cc8f69" opacity="1.00" d=" M 398.55 214.85 C 400.35 214.02 402.35 213.87 404.06 215.01 L 403.35 215.67 C 398.79 218.85 393.69 222.11 387.86 221.46 C 387.79 221.04 387.66 220.21 387.59 219.79 C 391.47 218.67 395.03 216.77 398.55 214.85 Z" />
</g>
<g id="#fdecabff">
<path fill="#fdecab" opacity="1.00" d=" M 405.69 215.67 C 408.10 214.70 411.04 213.68 413.17 215.84 C 416.65 217.84 415.73 222.18 415.52 225.50 C 412.18 225.94 408.67 226.49 405.43 225.32 C 403.10 222.56 405.01 218.72 405.69 215.67 Z" />
</g>
<g id="#fcf2d1ff">
<path fill="#fcf2d1" opacity="1.00" d=" M 387.86 221.46 C 393.69 222.11 398.79 218.85 403.35 215.67 C 402.78 217.65 402.46 219.73 401.55 221.60 C 400.24 223.09 398.29 223.77 396.55 224.59 C 394.07 225.68 391.37 226.49 389.33 228.34 C 387.75 229.85 387.50 232.15 387.19 234.20 C 386.59 239.53 386.51 244.92 385.47 250.21 C 383.49 244.04 385.77 237.53 386.43 231.31 C 386.59 227.48 390.18 225.62 392.91 223.66 C 391.25 223.17 389.56 222.75 387.97 222.06 L 387.86 221.46 Z" />
</g>
<g id="#a0a05eff">
<path fill="#a0a05e" opacity="1.00" d=" M 421.82 220.94 C 423.79 221.43 425.75 221.95 427.68 222.58 C 426.03 224.84 424.62 227.84 421.58 228.43 C 416.44 229.77 411.09 229.95 405.82 230.24 C 402.35 229.07 399.10 227.25 396.55 224.59 C 401.89 225.00 406.88 227.86 412.32 227.25 C 415.79 227.09 419.10 225.94 422.17 224.37 C 422.05 223.22 421.93 222.08 421.82 220.94 Z" />
</g>
<g id="#b2c87cff">
<path fill="#b2c87c" opacity="1.00" d=" M 427.68 222.58 C 429.39 223.29 431.50 223.66 432.68 225.19 C 434.17 228.29 434.81 231.71 436.19 234.86 C 436.85 236.77 437.94 238.65 437.85 240.73 C 437.06 242.24 435.58 243.19 434.35 244.31 C 434.14 241.97 433.80 239.64 433.35 237.34 C 432.59 235.43 431.71 233.58 430.85 231.72 C 428.55 234.13 426.44 236.71 424.55 239.44 C 421.69 239.08 418.84 238.63 415.99 238.17 C 414.69 240.69 413.76 243.46 411.97 245.70 C 410.35 246.75 408.46 247.26 406.68 247.96 C 408.51 249.84 410.41 251.66 412.24 253.54 C 412.14 253.95 411.94 254.77 411.84 255.18 C 408.80 257.39 404.59 257.42 401.15 256.25 C 398.34 254.26 396.40 251.18 394.97 248.10 C 393.88 244.43 395.07 240.57 395.20 236.84 C 396.02 237.94 396.90 239.01 397.77 240.09 C 399.69 238.25 401.14 235.30 403.97 234.85 C 406.69 236.14 408.84 238.34 411.13 240.25 C 412.82 238.15 414.38 235.94 415.78 233.64 C 412.41 232.64 409.08 231.53 405.82 230.24 C 411.09 229.95 416.44 229.77 421.58 228.43 C 424.62 227.84 426.03 224.84 427.68 222.58 Z" />
</g>
<g id="#c7d693ff">
<path fill="#c7d693" opacity="1.00" d=" M 389.33 228.34 C 391.37 226.49 394.07 225.68 396.55 224.59 C 399.10 227.25 402.35 229.07 405.82 230.24 C 409.08 231.53 412.41 232.64 415.78 233.64 C 414.38 235.94 412.82 238.15 411.13 240.25 C 408.84 238.34 406.69 236.14 403.97 234.85 C 401.14 235.30 399.69 238.25 397.77 240.09 C 396.90 239.01 396.02 237.94 395.20 236.84 C 394.66 235.47 394.12 234.10 393.58 232.74 C 391.27 238.58 391.78 245.02 389.91 250.99 C 389.48 250.90 388.62 250.73 388.19 250.64 C 387.51 250.53 386.15 250.31 385.47 250.21 C 386.51 244.92 386.59 239.53 387.19 234.20 C 387.50 232.15 387.75 229.85 389.33 228.34 Z" />
</g>
<g id="#deba9eff">
<path fill="#deba9e" opacity="1.00" d=" M 240.20 228.73 C 240.63 232.05 240.93 235.59 242.95 238.40 C 245.99 236.12 245.40 231.30 248.61 228.93 C 248.68 229.42 248.83 230.40 248.91 230.89 C 248.41 232.27 247.92 233.66 247.49 235.07 C 247.33 236.57 247.30 238.08 247.01 239.56 C 245.24 241.58 242.18 241.06 239.79 241.58 C 239.11 237.31 238.79 232.90 240.20 228.73 Z" />
</g>
<g id="#f7e4c3ff">
<path fill="#f7e4c3" opacity="1.00" d=" M 253.08 238.65 C 259.36 237.30 263.32 230.63 269.83 230.06 C 274.69 231.69 274.04 237.85 273.59 241.91 C 270.79 241.38 268.09 240.38 265.25 240.10 C 263.56 240.59 262.15 241.92 261.40 243.49 C 260.92 247.88 263.20 252.39 261.39 256.67 C 260.25 255.67 259.09 254.71 257.91 253.77 C 257.15 255.49 256.59 257.32 256.91 259.22 C 257.06 260.33 257.26 261.44 257.45 262.55 C 255.61 261.68 253.76 260.83 251.89 260.03 C 252.74 262.38 253.80 264.67 255.23 266.73 C 258.00 270.72 260.07 275.30 263.89 278.46 C 263.70 279.99 263.42 281.52 263.17 283.05 C 260.77 284.61 258.40 286.38 256.96 288.92 C 255.40 291.24 254.10 294.57 250.81 294.69 C 243.88 295.46 238.97 289.68 233.61 286.33 C 229.36 283.86 228.07 278.87 226.54 274.56 C 229.05 275.19 231.53 275.90 234.02 276.62 C 236.93 274.22 240.35 272.21 244.27 273.20 C 243.63 272.09 243.04 270.95 242.27 269.94 C 238.59 269.14 234.78 269.55 231.06 269.32 C 230.92 266.80 230.79 264.29 230.69 261.77 C 230.18 261.64 229.17 261.37 228.67 261.24 C 229.79 259.25 230.61 256.60 233.19 256.16 C 233.15 256.81 233.06 258.11 233.01 258.77 C 236.33 256.99 239.63 255.16 242.92 253.33 C 240.55 251.12 239.48 248.09 239.28 244.91 C 238.35 244.60 237.42 244.29 236.49 243.98 C 237.48 243.06 238.23 241.52 239.79 241.58 C 242.18 241.06 245.24 241.58 247.01 239.56 C 247.30 238.08 247.33 236.57 247.49 235.07 C 248.88 236.84 250.52 239.03 253.08 238.65 Z" />
</g>
<g id="#a9b46dff">
<path fill="#a9b46d" opacity="1.00" d=" M 424.55 239.44 C 426.44 236.71 428.55 234.13 430.85 231.72 C 431.71 233.58 432.59 235.43 433.35 237.34 C 432.07 237.22 430.54 236.27 429.42 237.27 C 427.00 241.00 426.02 245.68 426.89 250.07 C 426.93 251.74 427.79 253.60 427.11 255.19 C 425.34 256.27 423.30 256.80 421.39 257.58 C 419.03 255.60 419.83 252.59 420.68 250.07 C 419.41 251.58 418.10 253.07 416.79 254.56 C 415.45 253.53 414.11 252.50 412.78 251.47 C 412.65 251.99 412.38 253.03 412.24 253.54 C 410.41 251.66 408.51 249.84 406.68 247.96 C 408.46 247.26 410.35 246.75 411.97 245.70 C 413.76 243.46 414.69 240.69 415.99 238.17 C 418.84 238.63 421.69 239.08 424.55 239.44 Z" />
</g>
<g id="#a1b06bff">
<path fill="#a1b06b" opacity="1.00" d=" M 389.91 250.99 C 391.78 245.02 391.27 238.58 393.58 232.74 C 394.12 234.10 394.66 235.47 395.20 236.84 C 395.07 240.57 393.88 244.43 394.97 248.10 C 396.40 251.18 398.34 254.26 401.15 256.25 C 404.59 257.42 408.80 257.39 411.84 255.18 C 411.50 256.45 411.14 257.72 410.75 258.98 C 410.22 260.60 409.67 262.20 409.11 263.81 C 411.86 263.56 414.61 263.27 417.35 262.92 C 418.06 264.15 418.80 265.36 419.53 266.59 C 420.11 265.22 420.69 263.85 421.29 262.49 C 422.09 263.73 422.99 264.92 423.58 266.29 C 423.25 268.22 422.40 270.02 422.11 271.96 C 422.10 273.83 422.98 275.57 423.52 277.33 C 419.10 280.64 412.61 279.96 408.48 276.48 C 405.06 273.54 400.43 274.46 396.39 275.08 C 395.76 274.58 395.14 274.08 394.53 273.59 C 395.08 272.42 395.63 271.26 396.16 270.09 C 397.39 271.05 398.63 272.02 399.88 272.99 C 402.64 270.46 405.15 267.63 407.06 264.39 C 403.79 261.82 398.41 261.43 396.99 257.00 C 396.46 255.57 396.04 254.06 395.15 252.81 C 393.53 251.88 391.69 251.45 389.91 250.99 Z" />
</g>
<g id="#95955eff">
<path fill="#95955e" opacity="1.00" d=" M 429.42 237.27 C 430.54 236.27 432.07 237.22 433.35 237.34 C 433.80 239.64 434.14 241.97 434.35 244.31 C 433.33 250.98 432.97 257.77 431.09 264.30 C 431.22 266.52 431.60 268.72 431.93 270.92 C 432.24 273.10 432.23 275.30 432.15 277.50 L 431.38 276.87 C 431.00 276.56 430.24 275.96 429.85 275.65 C 429.34 277.26 428.84 278.88 428.34 280.50 C 426.00 280.54 423.66 280.74 421.41 281.36 C 421.94 281.62 423.01 282.14 423.54 282.40 L 424.48 282.84 C 423.29 283.20 422.10 283.56 420.91 283.92 C 417.99 284.36 415.03 284.12 412.12 283.84 C 408.19 282.75 404.92 285.25 402.10 287.61 C 402.35 285.89 402.59 284.17 402.81 282.46 C 400.97 281.24 399.06 280.09 397.48 278.54 C 397.09 277.39 396.73 276.24 396.39 275.08 C 400.43 274.46 405.06 273.54 408.48 276.48 C 412.61 279.96 419.10 280.64 423.52 277.33 C 422.98 275.57 422.10 273.83 422.11 271.96 C 422.40 270.02 423.25 268.22 423.58 266.29 C 422.99 264.92 422.09 263.73 421.29 262.49 C 420.69 263.85 420.11 265.22 419.53 266.59 C 418.80 265.36 418.06 264.15 417.35 262.92 C 416.24 260.94 415.28 258.88 414.27 256.85 C 413.09 257.56 411.91 258.27 410.75 258.98 C 411.14 257.72 411.50 256.45 411.84 255.18 C 411.94 254.77 412.14 253.95 412.24 253.54 C 412.38 253.03 412.65 251.99 412.78 251.47 C 414.11 252.50 415.45 253.53 416.79 254.56 C 418.10 253.07 419.41 251.58 420.68 250.07 C 419.83 252.59 419.03 255.60 421.39 257.58 C 423.30 256.80 425.34 256.27 427.11 255.19 C 427.79 253.60 426.93 251.74 426.89 250.07 C 426.02 245.68 427.00 241.00 429.42 237.27 Z" />
</g>
<g id="#ecc69dff">
<path fill="#ecc69d" opacity="1.00" d=" M 236.49 243.98 C 237.42 244.29 238.35 244.60 239.28 244.91 C 239.48 248.09 240.55 251.12 242.92 253.33 C 239.63 255.16 236.33 256.99 233.01 258.77 C 233.06 258.11 233.15 256.81 233.19 256.16 C 233.72 251.97 234.58 247.77 236.49 243.98 Z" />
</g>
<g id="#f3e3aaff">
<path fill="#f3e3aa" opacity="1.00" d=" M 388.19 250.64 C 388.62 250.73 389.48 250.90 389.91 250.99 C 391.69 251.45 393.53 251.88 395.15 252.81 C 396.04 254.06 396.46 255.57 396.99 257.00 C 396.57 261.12 397.51 265.34 396.45 269.39 C 395.15 264.72 394.16 259.96 392.51 255.41 C 392.03 253.74 390.72 252.57 389.40 251.56 C 389.10 251.33 388.49 250.87 388.19 250.64 Z" />
</g>
<g id="#d9b48dff">
<path fill="#d9b48d" opacity="1.00" d=" M 257.91 253.77 C 259.09 254.71 260.25 255.67 261.39 256.67 C 261.26 257.04 261.00 257.79 260.87 258.16 C 259.55 258.53 258.23 258.88 256.91 259.22 C 256.59 257.32 257.15 255.49 257.91 253.77 Z" />
</g>
<g id="#b5c982ff">
<path fill="#b5c982" opacity="1.00" d=" M 396.99 257.00 C 398.41 261.43 403.79 261.82 407.06 264.39 C 405.15 267.63 402.64 270.46 399.88 272.99 C 398.63 272.02 397.39 271.05 396.16 270.09 L 396.45 269.39 C 397.51 265.34 396.57 261.12 396.99 257.00 Z" />
</g>
<g id="#7e7f47ff">
<path fill="#7e7f47" opacity="1.00" d=" M 410.75 258.98 C 411.91 258.27 413.09 257.56 414.27 256.85 C 415.28 258.88 416.24 260.94 417.35 262.92 C 414.61 263.27 411.86 263.56 409.11 263.81 C 409.67 262.20 410.22 260.60 410.75 258.98 Z" />
</g>
<g id="#e7d2b5ff">
<path fill="#e7d2b5" opacity="1.00" d=" M 256.91 259.22 C 258.23 258.88 259.55 258.53 260.87 258.16 C 260.79 259.67 260.83 261.18 260.86 262.69 C 259.71 263.99 258.55 265.28 257.39 266.56 C 260.41 270.01 265.57 273.08 263.89 278.46 C 260.07 275.30 258.00 270.72 255.23 266.73 C 253.80 264.67 252.74 262.38 251.89 260.03 C 253.76 260.83 255.61 261.68 257.45 262.55 C 257.26 261.44 257.06 260.33 256.91 259.22 Z" />
</g>
<g id="#e5c8acff">
<path fill="#e5c8ac" opacity="1.00" d=" M 228.67 261.24 C 229.17 261.37 230.18 261.64 230.69 261.77 C 230.79 264.29 230.92 266.80 231.06 269.32 C 234.78 269.55 238.59 269.14 242.27 269.94 C 243.04 270.95 243.63 272.09 244.27 273.20 C 240.35 272.21 236.93 274.22 234.02 276.62 C 231.53 275.90 229.05 275.19 226.54 274.56 C 228.07 278.87 229.36 283.86 233.61 286.33 C 238.97 289.68 243.88 295.46 250.81 294.69 C 254.10 294.57 255.40 291.24 256.96 288.92 C 258.40 286.38 260.77 284.61 263.17 283.05 C 262.89 284.77 262.66 286.51 262.44 288.25 C 263.05 288.44 264.29 288.81 264.91 289.00 C 265.65 289.68 266.37 290.38 267.10 291.10 C 264.14 291.37 261.03 291.15 258.24 292.29 C 256.91 293.32 256.36 294.99 255.58 296.43 C 253.76 296.52 251.94 296.33 250.12 296.30 C 246.33 296.07 242.56 296.61 238.82 297.17 C 237.24 297.26 235.66 297.36 234.09 297.47 C 231.51 296.48 229.19 294.97 226.95 293.39 C 226.25 294.36 225.57 295.34 224.83 296.28 C 224.67 290.68 224.76 285.07 224.29 279.49 C 224.00 273.12 225.84 266.89 228.67 261.24 Z" />
</g>
<g id="#f0dab3ff">
<path fill="#f0dab3" opacity="1.00" d=" M 315.99 266.95 C 316.10 263.62 320.19 260.83 323.23 262.64 C 325.50 264.16 325.46 267.47 323.90 269.49 C 323.40 268.68 322.90 267.87 322.40 267.06 C 320.20 267.42 318.46 268.60 317.72 270.77 C 317.04 269.54 316.37 268.30 315.99 266.95 Z" />
</g>
<g id="#b1a168ff">
<path fill="#b1a168" opacity="1.00" d=" M 431.09 264.30 C 432.52 265.42 434.01 266.46 435.54 267.45 C 437.18 268.54 438.77 269.72 440.34 270.94 C 440.86 273.36 441.37 275.78 441.88 278.21 C 441.87 280.22 441.75 282.23 441.67 284.25 C 440.45 285.88 439.24 287.51 438.03 289.14 C 437.72 287.82 437.42 286.51 437.13 285.19 C 435.90 285.30 434.67 285.42 433.46 285.56 C 433.14 286.63 432.81 287.69 432.47 288.75 C 431.78 286.73 430.84 284.81 429.93 282.89 C 428.11 282.87 426.29 282.85 424.48 282.84 L 423.54 282.40 C 426.00 282.36 428.45 282.19 430.91 282.04 C 431.07 280.31 431.25 278.59 431.38 276.87 L 432.15 277.50 C 432.18 280.05 433.08 282.41 434.84 284.27 C 435.72 283.93 436.60 283.61 437.49 283.29 C 435.52 280.78 435.91 277.78 436.69 274.91 C 437.65 271.94 433.75 271.83 431.93 270.92 C 431.60 268.72 431.22 266.52 431.09 264.30 Z" />
</g>
<g id="#d5b483ff">
<path fill="#d5b483" opacity="1.00" d=" M 435.54 267.45 C 440.14 266.54 444.81 265.21 449.54 265.55 C 452.77 267.12 454.03 271.36 453.66 274.74 C 452.47 278.91 449.04 281.91 446.28 285.08 L 446.05 284.54 C 445.98 284.41 445.84 284.14 445.77 284.01 C 444.40 284.04 443.03 284.13 441.67 284.25 C 441.75 282.23 441.87 280.22 441.88 278.21 C 442.76 279.43 443.69 280.60 444.62 281.79 C 447.67 280.33 450.49 278.00 451.59 274.70 C 452.07 272.19 451.05 269.56 449.47 267.64 C 446.03 266.75 442.83 268.79 440.34 270.94 C 438.77 269.72 437.18 268.54 435.54 267.45 Z" />
</g>
<g id="#abba83ff">
<path fill="#abba83" opacity="1.00" d=" M 317.72 270.77 C 318.46 268.60 320.20 267.42 322.40 267.06 C 322.90 267.87 323.40 268.68 323.90 269.49 C 323.11 270.79 321.57 271.84 321.62 273.50 C 323.38 274.16 325.21 274.61 327.03 275.12 L 326.83 275.96 C 325.61 279.11 325.62 282.45 327.56 285.32 C 324.97 285.52 322.38 285.70 319.80 285.77 C 320.89 285.37 321.97 284.96 323.05 284.53 C 321.46 283.74 319.90 282.77 318.14 282.43 C 317.03 282.92 316.02 283.60 315.00 284.24 C 315.49 284.62 316.46 285.39 316.95 285.77 C 315.87 285.64 314.80 285.49 313.73 285.33 C 312.69 283.13 311.63 280.93 310.58 278.74 C 313.32 276.67 316.26 274.86 319.20 273.09 C 318.83 272.51 318.09 271.35 317.72 270.77 Z" />
</g>
<g id="#fee5a4ff">
<path fill="#fee5a4" opacity="1.00" d=" M 440.34 270.94 C 442.83 268.79 446.03 266.75 449.47 267.64 C 451.05 269.56 452.07 272.19 451.59 274.70 C 450.49 278.00 447.67 280.33 444.62 281.79 C 443.69 280.60 442.76 279.43 441.88 278.21 C 441.37 275.78 440.86 273.36 440.34 270.94 Z" />
</g>
<g id="#fde3a3ff">
<path fill="#fde3a3" opacity="1.00" d=" M 362.47 268.59 C 369.39 267.86 376.44 267.53 383.31 268.92 C 378.18 268.99 373.05 269.04 367.93 269.21 C 366.69 269.12 365.68 269.81 364.71 270.46 C 369.86 270.78 375.15 270.17 380.11 271.95 C 378.66 276.16 378.05 280.70 379.41 285.02 C 379.62 285.77 380.04 287.27 380.26 288.02 C 375.78 287.95 371.38 287.08 367.14 285.69 C 366.70 285.96 365.83 286.50 365.39 286.77 C 364.00 286.11 362.58 285.54 361.20 284.90 C 360.19 283.68 359.23 282.43 358.32 281.14 C 358.50 280.49 358.84 279.20 359.02 278.55 C 363.78 281.04 369.85 284.65 375.02 281.07 C 377.66 279.94 376.72 276.89 376.77 274.64 C 371.80 274.07 366.65 273.75 362.16 271.33 C 362.24 270.65 362.39 269.27 362.47 268.59 Z" />
</g>
<g id="#fef2c0ff">
<path fill="#fef2c0" opacity="1.00" d=" M 358.32 281.14 C 356.32 276.83 357.22 269.96 362.47 268.59 C 362.39 269.27 362.24 270.65 362.16 271.33 C 366.65 273.75 371.80 274.07 376.77 274.64 C 376.72 276.89 377.66 279.94 375.02 281.07 C 369.85 284.65 363.78 281.04 359.02 278.55 C 358.84 279.20 358.50 280.49 358.32 281.14 Z" />
</g>
<g id="#cec678ff">
<path fill="#cec678" opacity="1.00" d=" M 364.71 270.46 C 365.68 269.81 366.69 269.12 367.93 269.21 C 373.05 269.04 378.18 268.99 383.31 268.92 C 387.66 269.55 392.07 269.84 396.45 269.39 L 396.16 270.09 C 395.63 271.26 395.08 272.42 394.53 273.59 C 395.14 274.08 395.76 274.58 396.39 275.08 C 396.73 276.24 397.09 277.39 397.48 278.54 C 396.34 277.44 395.26 276.29 394.19 275.15 C 391.94 276.52 390.05 278.42 388.85 280.79 C 385.48 281.64 382.23 282.98 379.41 285.02 C 378.05 280.70 378.66 276.16 380.11 271.95 C 375.15 270.17 369.86 270.78 364.71 270.46 Z" />
</g>
<g id="#cbc97dff">
<path fill="#cbc97d" opacity="1.00" d=" M 431.93 270.92 C 433.75 271.83 437.65 271.94 436.69 274.91 C 435.91 277.78 435.52 280.78 437.49 283.29 C 436.60 283.61 435.72 283.93 434.84 284.27 C 433.08 282.41 432.18 280.05 432.15 277.50 C 432.23 275.30 432.24 273.10 431.93 270.92 Z" />
</g>
<g id="#e0e37fff">
<path fill="#e0e37f" opacity="1.00" d=" M 388.85 280.79 C 390.05 278.42 391.94 276.52 394.19 275.15 C 395.26 276.29 396.34 277.44 397.48 278.54 C 399.06 280.09 400.97 281.24 402.81 282.46 C 402.59 284.17 402.35 285.89 402.10 287.61 C 404.92 285.25 408.19 282.75 412.12 283.84 C 409.95 288.19 409.19 294.04 404.41 296.40 C 404.01 296.15 403.22 295.64 402.82 295.39 C 400.02 292.89 396.21 292.66 392.66 292.36 C 392.53 291.27 392.41 290.18 392.28 289.09 C 390.65 287.56 389.11 285.94 387.66 284.24 C 388.04 283.08 388.44 281.93 388.85 280.79 Z" />
</g>
<g id="#e9d1b8ff">
<path fill="#e9d1b8" opacity="1.00" d=" M 326.83 275.96 C 327.31 276.85 327.79 277.73 328.29 278.62 C 330.85 282.19 335.83 281.66 339.38 283.71 C 336.06 285.32 332.49 286.51 328.78 286.70 C 321.93 287.07 314.93 287.44 308.25 285.59 C 307.74 282.95 308.26 280.33 310.58 278.74 C 311.63 280.93 312.69 283.13 313.73 285.33 C 314.80 285.49 315.87 285.64 316.95 285.77 C 317.66 285.77 319.09 285.77 319.80 285.77 C 322.38 285.70 324.97 285.52 327.56 285.32 C 325.62 282.45 325.61 279.11 326.83 275.96 Z" />
</g>
<g id="#7f753aff">
<path fill="#7f753a" opacity="1.00" d=" M 428.34 280.50 C 428.84 278.88 429.34 277.26 429.85 275.65 C 430.24 275.96 431.00 276.56 431.38 276.87 C 431.25 278.59 431.07 280.31 430.91 282.04 C 428.45 282.19 426.00 282.36 423.54 282.40 C 423.01 282.14 421.94 281.62 421.41 281.36 C 423.66 280.74 426.00 280.54 428.34 280.50 Z" />
</g>
<g id="#9e7f5eff">
<path fill="#9e7f5e" opacity="1.00" d=" M 379.41 285.02 C 382.23 282.98 385.48 281.64 388.85 280.79 C 388.44 281.93 388.04 283.08 387.66 284.24 C 386.20 285.15 384.74 286.06 383.28 286.97 C 383.41 290.31 383.58 293.96 386.35 296.29 C 386.49 297.02 386.63 297.75 386.77 298.49 C 391.01 299.83 395.15 301.79 399.69 301.88 C 401.21 302.10 402.72 302.40 404.24 302.64 C 400.79 302.77 397.35 303.15 393.90 303.27 C 393.48 303.24 392.65 303.18 392.23 303.14 C 387.20 300.29 381.58 298.24 377.60 293.86 C 376.38 292.63 375.20 291.37 374.02 290.12 C 376.71 290.99 379.39 291.87 382.08 292.75 C 381.45 291.18 380.81 289.61 380.26 288.02 C 380.04 287.27 379.62 285.77 379.41 285.02 Z" />
</g>
<g id="#766651ff">
<path fill="#766651" opacity="1.00" d=" M 315.00 284.24 C 316.02 283.60 317.03 282.92 318.14 282.43 C 319.90 282.77 321.46 283.74 323.05 284.53 C 321.97 284.96 320.89 285.37 319.80 285.77 C 319.09 285.77 317.66 285.77 316.95 285.77 C 316.46 285.39 315.49 284.62 315.00 284.24 Z" />
<path fill="#766651" opacity="1.00" d=" M 386.35 296.29 C 388.50 295.68 390.65 294.93 392.90 294.77 C 395.71 295.94 397.94 298.62 401.23 298.45 C 401.06 297.27 400.90 296.09 400.74 294.91 C 401.26 295.03 402.30 295.27 402.82 295.39 C 403.22 295.64 404.01 296.15 404.41 296.40 C 406.58 296.64 408.76 296.42 410.93 296.25 C 414.18 296.61 417.46 296.58 420.72 296.93 C 420.10 298.04 419.48 299.15 418.87 300.27 C 412.45 300.10 405.85 299.64 399.69 301.88 C 395.15 301.79 391.01 299.83 386.77 298.49 C 386.63 297.75 386.49 297.02 386.35 296.29 Z" />
</g>
<g id="#d7dd7eff">
<path fill="#d7dd7e" opacity="1.00" d=" M 420.91 283.92 C 422.10 283.56 423.29 283.20 424.48 282.84 C 426.29 282.85 428.11 282.87 429.93 282.89 C 430.84 284.81 431.78 286.73 432.47 288.75 C 431.96 290.04 431.19 291.20 430.48 292.38 C 429.87 292.50 428.66 292.74 428.05 292.86 C 425.41 292.76 422.76 293.22 421.46 295.83 C 417.96 296.20 414.44 296.42 410.93 296.25 C 411.27 292.77 411.93 289.08 414.03 286.20 C 416.22 285.15 418.60 284.64 420.91 283.92 Z" />
</g>
<g id="#928666ff">
<path fill="#928666" opacity="1.00" d=" M 441.67 284.25 C 443.03 284.13 444.40 284.04 445.77 284.01 C 445.84 284.14 445.98 284.41 446.05 284.54 C 445.76 284.85 445.18 285.47 444.88 285.78 C 443.04 287.66 441.26 289.62 439.91 291.89 C 438.16 295.37 436.18 299.18 432.02 300.14 C 431.35 299.05 430.68 297.96 430.02 296.87 C 430.82 295.18 431.64 293.50 432.48 291.83 C 431.98 291.96 430.98 292.24 430.48 292.38 C 431.19 291.20 431.96 290.04 432.47 288.75 C 432.81 287.69 433.14 286.63 433.46 285.56 C 434.67 285.42 435.90 285.30 437.13 285.19 C 437.42 286.51 437.72 287.82 438.03 289.14 C 439.24 287.51 440.45 285.88 441.67 284.25 Z" />
</g>
<g id="#c6c37aff">
<path fill="#c6c37a" opacity="1.00" d=" M 383.28 286.97 C 384.74 286.06 386.20 285.15 387.66 284.24 C 389.11 285.94 390.65 287.56 392.28 289.09 C 392.41 290.18 392.53 291.27 392.66 292.36 C 396.21 292.66 400.02 292.89 402.82 295.39 C 402.30 295.27 401.26 295.03 400.74 294.91 C 400.90 296.09 401.06 297.27 401.23 298.45 C 397.94 298.62 395.71 295.94 392.90 294.77 C 390.65 294.93 388.50 295.68 386.35 296.29 C 383.58 293.96 383.41 290.31 383.28 286.97 Z" />
</g>
<g id="#b1b763ff">
<path fill="#b1b763" opacity="1.00" d=" M 412.12 283.84 C 415.03 284.12 417.99 284.36 420.91 283.92 C 418.60 284.64 416.22 285.15 414.03 286.20 C 411.93 289.08 411.27 292.77 410.93 296.25 C 408.76 296.42 406.58 296.64 404.41 296.40 C 409.19 294.04 409.95 288.19 412.12 283.84 Z" />
</g>
<g id="#e7b389ff">
<path fill="#e7b389" opacity="1.00" d=" M 365.39 286.77 C 365.83 286.50 366.70 285.96 367.14 285.69 C 371.38 287.08 375.78 287.95 380.26 288.02 C 380.81 289.61 381.45 291.18 382.08 292.75 C 379.39 291.87 376.71 290.99 374.02 290.12 C 375.20 291.37 376.38 292.63 377.60 293.86 C 376.99 296.94 378.59 299.57 380.83 301.55 C 376.05 300.75 371.17 299.82 367.19 296.86 C 369.23 295.09 371.56 293.71 373.94 292.46 C 372.48 291.38 371.04 290.27 369.54 289.25 C 368.19 288.36 366.81 287.52 365.39 286.77 Z" />
</g>
<g id="#f5dba5ff">
<path fill="#f5dba5" opacity="1.00" d=" M 444.88 285.78 C 445.18 285.47 445.76 284.85 446.05 284.54 L 446.28 285.08 C 447.12 287.72 447.31 290.70 449.00 292.98 C 451.97 295.07 455.42 296.38 458.30 298.62 C 454.57 300.55 450.82 302.56 446.72 303.57 C 430.71 307.07 414.24 306.29 397.97 306.32 C 389.32 306.22 380.84 304.21 372.23 303.59 C 364.87 302.27 356.94 302.19 350.45 298.03 C 352.23 296.23 353.99 294.00 356.70 293.71 C 361.11 292.66 366.70 293.62 369.54 289.25 C 371.04 290.27 372.48 291.38 373.94 292.46 C 371.56 293.71 369.23 295.09 367.19 296.86 C 371.17 299.82 376.05 300.75 380.83 301.55 C 384.53 302.63 388.38 303.08 392.23 303.14 C 392.65 303.18 393.48 303.24 393.90 303.27 C 400.59 304.11 407.33 304.27 414.04 304.85 C 420.48 305.36 427.30 305.27 433.11 302.10 C 436.43 300.23 440.26 300.02 443.98 300.05 C 446.96 300.13 449.87 299.42 452.57 298.17 C 449.96 296.80 446.71 296.28 444.60 294.21 C 443.89 291.44 444.49 288.55 444.88 285.78 Z" />
</g>
<g id="#dbbe9dff">
<path fill="#dbbe9d" opacity="1.00" d=" M 439.91 291.89 C 441.26 289.62 443.04 287.66 444.88 285.78 C 444.49 288.55 443.89 291.44 444.60 294.21 C 446.71 296.28 449.96 296.80 452.57 298.17 C 449.87 299.42 446.96 300.13 443.98 300.05 C 444.71 299.37 445.45 298.69 446.19 298.02 C 444.64 297.45 443.09 296.87 441.55 296.30 C 440.99 294.83 440.44 293.36 439.91 291.89 Z" />
</g>
<g id="#fae4b6ff">
<path fill="#fae4b6" opacity="1.00" d=" M 264.91 289.00 C 267.26 289.46 269.46 290.55 270.21 293.00 C 270.77 294.75 271.26 296.53 271.78 298.31 C 264.99 304.13 255.52 303.64 247.15 303.86 C 234.30 303.89 220.52 305.56 208.73 299.24 C 213.56 297.07 218.80 295.34 224.14 296.53 C 222.14 297.24 220.20 298.08 218.30 299.02 C 220.44 300.33 222.72 301.49 225.24 301.83 C 234.52 303.36 244.01 302.59 253.27 301.23 C 257.48 300.67 261.43 298.97 265.07 296.82 C 266.18 296.21 267.26 295.53 268.34 294.86 C 264.01 294.34 259.79 295.60 255.58 296.43 C 256.36 294.99 256.91 293.32 258.24 292.29 C 261.03 291.15 264.14 291.37 267.10 291.10 C 266.37 290.38 265.65 289.68 264.91 289.00 Z" />
</g>
<g id="#94916bff">
<path fill="#94916b" opacity="1.00" d=" M 421.46 295.83 C 422.76 293.22 425.41 292.76 428.05 292.86 C 427.49 294.92 427.08 297.07 425.98 298.93 C 424.03 300.57 421.23 300.11 418.87 300.27 C 419.48 299.15 420.10 298.04 420.72 296.93 C 417.46 296.58 414.18 296.61 410.93 296.25 C 414.44 296.42 417.96 296.20 421.46 295.83 Z" />
</g>
<g id="#4f4631ff">
<path fill="#4f4631" opacity="1.00" d=" M 428.05 292.86 C 428.66 292.74 429.87 292.50 430.48 292.38 C 430.98 292.24 431.98 291.96 432.48 291.83 C 431.64 293.50 430.82 295.18 430.02 296.87 C 430.68 297.96 431.35 299.05 432.02 300.14 C 423.25 303.79 413.51 303.44 404.24 302.64 C 402.72 302.40 401.21 302.10 399.69 301.88 C 405.85 299.64 412.45 300.10 418.87 300.27 C 421.23 300.11 424.03 300.57 425.98 298.93 C 427.08 297.07 427.49 294.92 428.05 292.86 Z" />
</g>
<g id="#bf9a85ff">
<path fill="#bf9a85" opacity="1.00" d=" M 432.02 300.14 C 436.18 299.18 438.16 295.37 439.91 291.89 C 440.44 293.36 440.99 294.83 441.55 296.30 C 443.09 296.87 444.64 297.45 446.19 298.02 C 445.45 298.69 444.71 299.37 443.98 300.05 C 440.26 300.02 436.43 300.23 433.11 302.10 C 427.30 305.27 420.48 305.36 414.04 304.85 C 407.33 304.27 400.59 304.11 393.90 303.27 C 397.35 303.15 400.79 302.77 404.24 302.64 C 413.51 303.44 423.25 303.79 432.02 300.14 Z" />
</g>
<g id="#ddb78eff">
<path fill="#ddb78e" opacity="1.00" d=" M 226.95 293.39 C 229.19 294.97 231.51 296.48 234.09 297.47 C 232.65 297.75 231.23 298.12 229.81 298.49 C 234.09 300.11 238.78 300.08 243.11 298.70 C 241.68 298.16 240.26 297.64 238.82 297.17 C 242.56 296.61 246.33 296.07 250.12 296.30 C 247.85 296.38 245.06 296.49 244.24 299.10 C 251.25 299.22 258.15 297.74 265.07 296.82 C 261.43 298.97 257.48 300.67 253.27 301.23 C 244.01 302.59 234.52 303.36 225.24 301.83 C 222.72 301.49 220.44 300.33 218.30 299.02 C 220.20 298.08 222.14 297.24 224.14 296.53 L 224.83 296.28 C 225.57 295.34 226.25 294.36 226.95 293.39 Z" />
</g>
<g id="#926549ff">
<path fill="#926549" opacity="1.00" d=" M 255.58 296.43 C 259.79 295.60 264.01 294.34 268.34 294.86 C 267.26 295.53 266.18 296.21 265.07 296.82 C 258.15 297.74 251.25 299.22 244.24 299.10 C 245.06 296.49 247.85 296.38 250.12 296.30 C 251.94 296.33 253.76 296.52 255.58 296.43 Z" />
</g>
<g id="#cd9c81ff">
<path fill="#cd9c81" opacity="1.00" d=" M 377.60 293.86 C 381.58 298.24 387.20 300.29 392.23 303.14 C 388.38 303.08 384.53 302.63 380.83 301.55 C 378.59 299.57 376.99 296.94 377.60 293.86 Z" />
</g>
<g id="#7e4b3aff">
<path fill="#7e4b3a" opacity="1.00" d=" M 234.09 297.47 C 235.66 297.36 237.24 297.26 238.82 297.17 C 240.26 297.64 241.68 298.16 243.11 298.70 C 238.78 300.08 234.09 300.11 229.81 298.49 C 231.23 298.12 232.65 297.75 234.09 297.47 Z" />
</g>
</svg>
